<?xml version="1.0" standalone="no"?><svg xmlns="http://www.w3.org/2000/svg" viewBox="0 0 1440 320"><path fill="#1a56db" fill-opacity="1" d="M0,288L9.6,250.7C19.2,213,38,139,58,128C76.8,117,96,171,115,170.7C134.4,171,154,117,173,80C192,43,211,21,230,10.7C249.6,0,269,0,288,48C307.2,96,326,192,346,245.3C364.8,299,384,309,403,288C422.4,267,442,213,461,197.3C480,181,499,203,518,208C537.6,213,557,203,576,213.3C595.2,224,614,256,634,266.7C652.8,277,672,267,691,224C710.4,181,730,107,749,112C768,117,787,203,806,197.3C825.6,192,845,96,864,90.7C883.2,85,902,171,922,208C940.8,245,960,235,979,224C998.4,213,1018,203,1037,208C1056,213,1075,235,1094,224C1113.6,213,1133,171,1152,165.3C1171.2,160,1190,192,1210,186.7C1228.8,181,1248,139,1267,106.7C1286.4,75,1306,53,1325,80C1344,107,1363,181,1382,202.7C1401.6,224,1421,192,1430,176L1440,160L1440,320L1430.4,320C1420.8,320,1402,320,1382,320C1363.2,320,1344,320,1325,320C1305.6,320,1286,320,1267,320C1248,320,1229,320,1210,320C1190.4,320,1171,320,1152,320C1132.8,320,1114,320,1094,320C1075.2,320,1056,320,1037,320C1017.6,320,998,320,979,320C960,320,941,320,922,320C902.4,320,883,320,864,320C844.8,320,826,320,806,320C787.2,320,768,320,749,320C729.6,320,710,320,691,320C672,320,653,320,634,320C614.4,320,595,320,576,320C556.8,320,538,320,518,320C499.2,320,480,320,461,320C441.6,320,422,320,403,320C384,320,365,320,346,320C326.4,320,307,320,288,320C268.8,320,250,320,230,320C211.2,320,192,320,173,320C153.6,320,134,320,115,320C96,320,77,320,58,320C38.4,320,19,320,10,320L0,320Z"></path></svg>